<svg width="28" height="28" viewBox="0 0 32 32" fill="none" xmlns="http://www.w3.org/2000/svg">
  <g clip-path="url(#clip0_1200_15)">
    <path
      d="M2.68237 13.6968L14.4447 1.93471L14.5868 1.7926C15.7057 0.673737 17.5197 0.673737 18.6386 1.79259C19.7474 2.90145 19.7588 4.69573 18.664 5.81854L8.56691 16.1745V17.1037L9.18634 17.7231H10.1155L19.5687 8.27677L25.2914 8.43174L29.3176 12.458V18.0328L17.1304 30.2201C16.0186 31.3319 14.2159 31.3319 13.1041 30.2201C11.9923 29.1083 11.9923 27.3057 13.1041 26.1938L23.4331 15.8648V14.9357L22.8137 14.3163H21.8846L12.5932 23.6076H6.39892L2.68237 19.8911L2.68237 13.6968Z"
      fill="currentColor" />
  </g>
  <defs>
    <clipPath id="clip0_1200_15">
      <rect width="32" height="32" fill="currentColor" />
    </clipPath>
  </defs>
</svg>